#!OML:ASF F:\VICON\USERDATA\INSTALL\rory3\rory3.ASF
:FULLY-SPECIFIED
:DEGREES
133
root 0.7644431467614836 17.75337728372833 40.04625929571413 2.225238998243528 2.5147432644915177 0.6453000817167764
lfemur -18.264772191627912 3.56544768135966 -18.753830420448566
ltibia 81.26039405683153
lfoot -0.929198857280179 -11.177120833232411
ltoes -7.68416332112996
rfemur -22.85739302010729 5.625399930227198 29.565048822050386
rtibia 56.726499357688475
rfoot 2.918772458592573 -4.573385573240977
rtoes -0.974164766763581
lowerback 14.888015381810089 -0.10810741932908569 1.433842360204511
upperback -0.5613010521606583 0.952750479016382 1.827156525381612
thorax -9.386904898332734 0.45390713010434697 0.4814881652328403
lowerneck -20.203627199167578 -4.68763630854944 -1.9696273270284346
upperneck 15.232540738722687 -6.792961716277505 2.7271083621895316
head 8.313036148870939 -2.7702708195641557 0.5594962479453296
lclavicle -1.9521729781560437e-15 1.1013548979497733e-15
lhumerus -50.60188554314947 -7.529588003160379 97.95921132742956
lradius 111.08394484878148
lwrist 46.558609658031074
lhand -17.8670185817205 6.423137838787899
lfingers 7.125020000000001
lthumb 8.367443799773696 36.22793337224206
rclavicle -1.952176533109819e-15 1.1013521049827522e-15
rhumerus -48.9409576421765 13.036747523805445 -101.12543399752029
rradius 112.93994546358661
rwrist -15.323853287816686
rhand -23.931492379597046 -98.43414732555398
rfingers 7.125020000000001
rthumb 3.803790918249373 15.877606816176508
134
root 0.7622174160991351 17.775973856077773 39.238849962654115 2.264217766495347 2.4143666726042565 0.45797388922627724
lfemur -20.654573844119117 3.266107249522074 -19.367257234730914
ltibia 80.05788813176318
lfoot -0.998448410571031 -10.947443451413488
ltoes -7.35211763717645
rfemur -21.7063612595866 5.741453656201896 29.72588641708673
rtibia 58.09861544887098
rfoot 2.7956690637645716 -4.220145587955433
rtoes -1.190087000715272
lowerback 14.950266707857267 0.0029770734662049048 1.6958225427984335
upperback -0.596512307578152 1.0751923669825283 1.789660029548669
thorax -9.42758573082312 0.5009255616773484 0.3000346299369935
lowerneck -20.108927545818062 -4.678853421530658 -1.9314126900937294
upperneck 15.303291622404872 -6.872336995280152 2.7786654052569535
head 8.31086054507747 -2.768411043247157 0.5561135617483773
lclavicle -1.9521729781560437e-15 1.1013548979497733e-15
lhumerus -51.62302202173882 -7.704534357542 97.91114038249039
lradius 111.05686948725516
lwrist 46.56827535150517
lhand -17.839129597536832 6.514781560724745
lfingers 7.125020000000001
lthumb 8.395266205417322 36.359306525356565
rclavicle -1.952176533109819e-15 1.1013521049827522e-15
rhumerus -48.35198853814687 13.362620477797819 -101.08510156518437
rradius 113.0240438347733
rwrist -15.183840257799957
rhand -23.708555490911287 -94.77349797372077
rfingers 7.125020000000001
rthumb 3.654801574955449 16.046813747235827
135
root 0.7728283554160857 17.832873097932108 40.234104476048635 2.429001337315462 2.6925485939063565 0.5165157106038551
lfemur -18.092506713592293 3.5622453629562165 -18.77058188262152
ltibia 77.6911640802607
lfoot -1.9797879500986288 -11.247462825504636
ltoes -7.656335303012752
rfemur -22.404277575807697 5.562531885796543 29.155283543075797
rtibia 59.105094401764255
rfoot 2.290165016922952 -4.181752692855684
rtoes -1.1684579539421072
lowerback 14.891226679744547 0.047096963401599024 1.7776774426702313
upperback -0.6346865045668257 1.2086095435911297 1.7526665173367402
thorax -9.432977884851068 0.560411648967231 0.13692100615695724
lowerneck -20.12992873299719 -4.747767768717169 -1.9227299315988402
upperneck 15.26165400949664 -6.99945926261893 2.7905575791135453
head 8.306301716783011 -2.7722880957683147 0.5496470029658896
lclavicle -1.9521729781560437e-15 1.1013548979497733e-15
lhumerus -52.27009159804416 -7.48796613518196 98.02187710127147
lradius 110.9871348914044
lwrist 46.437267715860706
lhand -17.78247894485083 6.611837732597875
lfingers 7.125020000000001
lthumb 8.413115837818777 36.44738958690908
rclavicle -1.952176533109819e-15 1.1013521049827522e-15
rhumerus -47.7978801697928 13.69569068650646 -101.03686726399057
rradius 113.05407040560576
rwrist -15.018323410318166
rhand -23.946572527266387 -101.45138605721846
rfingers 7.125020000000001
rthumb 3.983721427726313 16.43032451244156
136
root 0.7806738571026806 17.878814513395405 40.011777403159584 2.5033915497662016 2.697802395583877 0.5016988597695937
lfemur -22.494795713880546 2.9073015616776137 -19.984793661015672
ltibia 74.62974804425266
lfoot -2.3805625231595604 -11.322972920773102
ltoes -8.2168471290326
rfemur -20.31780006138899 5.8976077156089755 30.196041639352305
rtibia 59.008855650450485
rfoot 1.534458534651732 -4.6091792955753625
rtoes -1.1710909001033298
lowerback 14.792449370249509 0.057355600817361074 1.8032002186126328
upperback -0.67184801673104 1.3890063787646572 1.734855728905712
thorax -9.358842991021287 0.6879869525438971 0.16792508427001557
lowerneck -20.03237651714493 -4.70931028198106 -1.874919268043481
upperneck 15.359487750857214 -7.0305176429253065 2.84638598683909
head 8.28931384895644 -2.7922655935820124 0.5381029061693678
lclavicle -1.9521729781560437e-15 1.1013548979497733e-15
lhumerus -52.53976848498903 -7.429389766568742 98.07620557250179
lradius 110.55594437154899
lwrist 46.58651443382952
lhand -17.748328331185068 6.606213652689733
lfingers 7.125020000000001
lthumb 8.475345289798668 36.464064696059324
rclavicle -1.952176533109819e-15 1.1013521049827522e-15
rhumerus -47.208852439190316 14.064830976056168 -100.96180595228732
rradius 113.06225251360385
rwrist -14.825181696456836
rhand -23.85949846016109 -96.87756136229463
rfingers 7.125020000000001
rthumb 3.7947365235541346 16.080994129245134
